# xmcd CD database file
#
# Track frame offsets:
#	150
#	14370
#	28732
#	42905
#	56352
#	61780
#	74940
#	88800
#	103070
#	119535
#	135310
#	149695
#	163182
#	176242
#
# Disc length: 2539 seconds
#
# Revision: 1
# Processed by: cddbd v1.5.1PL0 Copyright (c) Steve Scherf et al.
# Submitted via: cdripper 1.0.3
#
DISCID=d309e90e
DTITLE=Bix Beiderbecke - The Bix Beiderbecke Legend
DYEAR=1961
DGENRE=Jazz
TTITLE0=Clementine (From New Orleans)
TTITLE1=I Didn't Know
TTITLE2=Sunday
TTITLE3=Changes
TTITLE4=Changes
TTITLE5=Lonely Melody
TTITLE6=Lonely Melody
TTITLE7=From Monday On
TTITLE8=There Ain't No Sweet Man That's Worth The Salt Of My Tears
TTITLE9=San
TTITLE10=Dardanella
TTITLE11=You Took Advantage Of Me
TTITLE12=Barnacle Bill, The Sailor
TTITLE13=I'll Be A Friend "With Pleasure"
EXTD=YEAR: 1961
EXTT0=
EXTT1=
EXTT2=
EXTT3=
EXTT4=
EXTT5=
EXTT6=
EXTT7=
EXTT8=
EXTT9=
EXTT10=
EXTT11=
EXTT12=
EXTT13=
PLAYORDER=
